<svg width="200" height="127" viewBox="0 0 200 127" fill="none" xmlns="http://www.w3.org/2000/svg">
<g clip-path="url(#clip0_295_2)">
<rect width="200" height="127" fill="white"/>
<rect y="12" width="90" height="103" rx="5" fill="#C4C4C4"/>
<rect x="110" y="12" width="90" height="103" rx="5" fill="#C4C4C4"/>
<rect x="45" width="110" height="127" rx="5" fill="#D9D9D9"/>
<mask id="mask0_295_2" style="mask-type:alpha" maskUnits="userSpaceOnUse" x="44" y="0" width="112" height="127">
<rect x="44.5784" y="0.494019" width="110.843" height="126.506" rx="5" fill="#D9D9D9"/>
</mask>
<g mask="url(#mask0_295_2)">
<path d="M83.1325 95.6748L121.738 127.301H44.5266L83.1325 95.6748Z" fill="#F0F0F0"/>
<path d="M123.494 71.5784L155.318 127.602H91.6702L123.494 71.5784Z" fill="#F0F0F0"/>
</g>
<circle cx="74.5" cy="39.5" r="18.5" fill="#F0F0F0"/>
<g filter="url(#filter0_d_295_2)">
<path d="M16 64.5L33.25 54.5407L33.25 74.4593L16 64.5Z" fill="white"/>
</g>
<g filter="url(#filter1_d_295_2)">
<path d="M184 64.5L166.75 74.4593L166.75 54.5407L184 64.5Z" fill="white"/>
</g>
</g>
<defs>
<filter id="filter0_d_295_2" x="12" y="54.5407" width="25.25" height="27.9186" filterUnits="userSpaceOnUse" color-interpolation-filters="sRGB">
<feFlood flood-opacity="0" result="BackgroundImageFix"/>
<feColorMatrix in="SourceAlpha" type="matrix" values="0 0 0 0 0 0 0 0 0 0 0 0 0 0 0 0 0 0 127 0" result="hardAlpha"/>
<feOffset dy="4"/>
<feGaussianBlur stdDeviation="2"/>
<feComposite in2="hardAlpha" operator="out"/>
<feColorMatrix type="matrix" values="0 0 0 0 0 0 0 0 0 0 0 0 0 0 0 0 0 0 0.25 0"/>
<feBlend mode="normal" in2="BackgroundImageFix" result="effect1_dropShadow_295_2"/>
<feBlend mode="normal" in="SourceGraphic" in2="effect1_dropShadow_295_2" result="shape"/>
</filter>
<filter id="filter1_d_295_2" x="162.75" y="54.5407" width="25.25" height="27.9186" filterUnits="userSpaceOnUse" color-interpolation-filters="sRGB">
<feFlood flood-opacity="0" result="BackgroundImageFix"/>
<feColorMatrix in="SourceAlpha" type="matrix" values="0 0 0 0 0 0 0 0 0 0 0 0 0 0 0 0 0 0 127 0" result="hardAlpha"/>
<feOffset dy="4"/>
<feGaussianBlur stdDeviation="2"/>
<feComposite in2="hardAlpha" operator="out"/>
<feColorMatrix type="matrix" values="0 0 0 0 0 0 0 0 0 0 0 0 0 0 0 0 0 0 0.25 0"/>
<feBlend mode="normal" in2="BackgroundImageFix" result="effect1_dropShadow_295_2"/>
<feBlend mode="normal" in="SourceGraphic" in2="effect1_dropShadow_295_2" result="shape"/>
</filter>
<clipPath id="clip0_295_2">
<rect width="200" height="127" fill="white"/>
</clipPath>
</defs>
</svg>
