<svg width="441" height="359" viewBox="0 0 441 359" fill="none" xmlns="http://www.w3.org/2000/svg">
<g clip-path="url(#clip0_213_38)">
<g clip-path="url(#clip1_213_38)">
<path d="M-0.172607 328.447L34.6213 285.163H404.781L438.605 328.447H-0.172607Z" fill="#404040"/>
<path d="M-0.172607 336.16V328.447H438.605V336.16H-0.172607Z" fill="#1D1D1D"/>
<path d="M404.657 285.163H34.6241V37.3428H404.657V285.163Z" fill="#1D1D1D"/>
</g>
<rect width="347.118" height="227.452" transform="translate(46.5059 47.5272)" fill="white"/>
<rect x="70.2695" y="90.8109" width="173.135" height="141.733" rx="8.487" fill="#F2F2F2"/>
<path d="M138.165 151.069C138.165 151.069 149.439 116.477 157.189 117.13C164.94 117.782 175.508 151.069 175.508 151.069" stroke="black" stroke-width="2.5461"/>
<path d="M178.548 149.196C182.147 153.881 190.785 203.737 190.785 203.737C190.785 203.737 182.867 207.083 156.952 207.083C131.038 207.083 122.04 203.737 122.04 203.737C122.04 203.737 129.958 152.543 133.917 149.196C135.935 147.492 145.795 151.196 156.952 151.204C168.11 151.213 176.782 146.899 178.548 149.196Z" fill="#1D1D1D"/>
<g clip-path="url(#clip2_213_38)">
<path d="M251.107 105.357V96.0984H254.651C255.32 96.0984 255.876 96.2039 256.319 96.4149C256.766 96.6228 257.099 96.9077 257.319 97.2693C257.542 97.631 257.653 98.0409 257.653 98.499C257.653 98.8757 257.581 99.1982 257.436 99.4664C257.291 99.7316 257.097 99.9471 256.853 100.113C256.609 100.279 256.336 100.398 256.035 100.47V100.56C256.363 100.579 256.678 100.679 256.979 100.863C257.284 101.044 257.533 101.3 257.725 101.632C257.918 101.963 258.015 102.364 258.015 102.834C258.015 103.314 257.899 103.745 257.667 104.127C257.435 104.507 257.085 104.807 256.618 105.027C256.151 105.247 255.563 105.357 254.855 105.357H251.107ZM252.784 103.956H254.588C255.197 103.956 255.635 103.84 255.904 103.607C256.175 103.372 256.31 103.071 256.31 102.703C256.31 102.429 256.243 102.182 256.107 101.962C255.971 101.739 255.778 101.564 255.528 101.437C255.278 101.308 254.98 101.243 254.633 101.243H252.784V103.956ZM252.784 100.036H254.443C254.733 100.036 254.993 99.9833 255.225 99.8778C255.458 99.7693 255.64 99.6171 255.772 99.4212C255.908 99.2223 255.976 98.9872 255.976 98.716C255.976 98.3573 255.849 98.062 255.596 97.8299C255.346 97.5978 254.974 97.4818 254.48 97.4818H252.784V100.036ZM261.038 96.0984V105.357H259.402V96.0984H261.038ZM264.719 105.497C264.279 105.497 263.883 105.419 263.53 105.262C263.18 105.102 262.903 104.867 262.698 104.557C262.496 104.246 262.395 103.864 262.395 103.409C262.395 103.017 262.468 102.693 262.612 102.437C262.757 102.18 262.954 101.975 263.205 101.822C263.455 101.668 263.737 101.552 264.05 101.474C264.366 101.392 264.693 101.333 265.031 101.297C265.438 101.255 265.768 101.217 266.021 101.184C266.274 101.148 266.458 101.094 266.573 101.022C266.69 100.946 266.749 100.83 266.749 100.673V100.646C266.749 100.306 266.648 100.042 266.446 99.8552C266.244 99.6683 265.953 99.5749 265.573 99.5749C265.173 99.5749 264.855 99.6623 264.62 99.8371C264.388 100.012 264.231 100.218 264.149 100.456L262.621 100.239C262.742 99.8175 262.941 99.4649 263.218 99.1816C263.495 98.8953 263.834 98.6813 264.235 98.5397C264.636 98.395 265.079 98.3227 265.564 98.3227C265.899 98.3227 266.232 98.3618 266.564 98.4402C266.895 98.5186 267.198 98.6482 267.472 98.829C267.746 99.0068 267.966 99.2494 268.132 99.5568C268.301 99.8642 268.385 100.249 268.385 100.71V105.357H266.812V104.403H266.758C266.658 104.596 266.518 104.777 266.337 104.946C266.16 105.111 265.935 105.245 265.664 105.348C265.396 105.447 265.081 105.497 264.719 105.497ZM265.144 104.295C265.473 104.295 265.757 104.23 265.998 104.1C266.24 103.968 266.425 103.793 266.554 103.576C266.687 103.359 266.753 103.122 266.753 102.866V102.048C266.702 102.09 266.615 102.129 266.491 102.165C266.371 102.201 266.235 102.233 266.084 102.26C265.934 102.287 265.784 102.311 265.637 102.333C265.489 102.354 265.361 102.372 265.253 102.387C265.008 102.42 264.79 102.474 264.597 102.55C264.404 102.625 264.252 102.73 264.14 102.866C264.029 102.999 263.973 103.17 263.973 103.381C263.973 103.683 264.083 103.91 264.303 104.064C264.523 104.218 264.803 104.295 265.144 104.295ZM273.06 105.493C272.367 105.493 271.771 105.34 271.274 105.036C270.78 104.732 270.399 104.311 270.13 103.775C269.865 103.235 269.733 102.614 269.733 101.912C269.733 101.207 269.868 100.585 270.139 100.045C270.411 99.5026 270.793 99.0806 271.288 98.7793C271.785 98.4749 272.373 98.3227 273.051 98.3227C273.614 98.3227 274.113 98.4266 274.547 98.6346C274.984 98.8395 275.332 99.1304 275.592 99.5071C275.851 99.8808 275.998 100.318 276.035 100.818H274.47C274.407 100.484 274.256 100.205 274.018 99.9818C273.783 99.7557 273.468 99.6427 273.073 99.6427C272.739 99.6427 272.445 99.7331 272.192 99.914C271.939 100.092 271.741 100.348 271.6 100.683C271.461 101.017 271.392 101.418 271.392 101.885C271.392 102.358 271.461 102.765 271.6 103.106C271.738 103.443 271.933 103.704 272.183 103.888C272.436 104.069 272.733 104.159 273.073 104.159C273.315 104.159 273.53 104.114 273.72 104.023C273.913 103.93 274.074 103.796 274.204 103.621C274.333 103.446 274.422 103.234 274.47 102.984H276.035C275.995 103.475 275.851 103.91 275.601 104.29C275.35 104.667 275.01 104.962 274.579 105.176C274.148 105.387 273.642 105.493 273.06 105.493ZM278.87 103.178L278.866 101.202H279.128L281.623 98.4131H283.536L280.466 101.831H280.127L278.87 103.178ZM277.378 105.357V96.0984H279.015V105.357H277.378ZM281.736 105.357L279.476 102.197L280.579 101.044L283.694 105.357H281.736ZM287.45 97.5044V96.0984H294.836V97.5044H291.975V105.357H290.311V97.5044H287.45ZM298.21 105.493C297.532 105.493 296.944 105.343 296.447 105.045C295.95 104.747 295.564 104.329 295.29 103.793C295.018 103.256 294.883 102.629 294.883 101.912C294.883 101.195 295.018 100.566 295.29 100.027C295.564 99.4875 295.95 99.0686 296.447 98.7702C296.944 98.4718 297.532 98.3227 298.21 98.3227C298.888 98.3227 299.476 98.4718 299.973 98.7702C300.47 99.0686 300.855 99.4875 301.126 100.027C301.4 100.566 301.537 101.195 301.537 101.912C301.537 102.629 301.4 103.256 301.126 103.793C300.855 104.329 300.47 104.747 299.973 105.045C299.476 105.343 298.888 105.493 298.21 105.493ZM298.219 104.182C298.587 104.182 298.894 104.081 299.141 103.879C299.388 103.674 299.572 103.399 299.693 103.056C299.816 102.712 299.878 102.33 299.878 101.908C299.878 101.483 299.816 101.098 299.693 100.755C299.572 100.408 299.388 100.132 299.141 99.9275C298.894 99.7226 298.587 99.6201 298.219 99.6201C297.842 99.6201 297.529 99.7226 297.279 99.9275C297.032 100.132 296.846 100.408 296.723 100.755C296.602 101.098 296.542 101.483 296.542 101.908C296.542 102.33 296.602 102.712 296.723 103.056C296.846 103.399 297.032 103.674 297.279 103.879C297.529 104.081 297.842 104.182 298.219 104.182ZM306.394 98.4131V99.6789H302.402V98.4131H306.394ZM303.387 96.7494H305.024V103.268C305.024 103.488 305.057 103.657 305.123 103.775C305.193 103.889 305.283 103.968 305.395 104.01C305.506 104.052 305.63 104.073 305.765 104.073C305.868 104.073 305.961 104.066 306.046 104.05C306.133 104.035 306.199 104.022 306.245 104.01L306.52 105.289C306.433 105.319 306.308 105.352 306.145 105.389C305.985 105.425 305.79 105.446 305.557 105.452C305.148 105.464 304.778 105.402 304.45 105.267C304.121 105.128 303.861 104.914 303.668 104.625C303.478 104.335 303.384 103.974 303.387 103.54V96.7494ZM310.762 105.493C310.066 105.493 309.465 105.348 308.958 105.059C308.455 104.766 308.068 104.353 307.796 103.82C307.525 103.283 307.39 102.652 307.39 101.926C307.39 101.211 307.525 100.585 307.796 100.045C308.071 99.5026 308.453 99.0806 308.945 98.7793C309.436 98.4749 310.013 98.3227 310.676 98.3227C311.104 98.3227 311.508 98.392 311.888 98.5306C312.27 98.6662 312.608 98.8772 312.9 99.1635C313.196 99.4498 313.428 99.8145 313.597 100.258C313.765 100.698 313.85 101.222 313.85 101.831V102.333H308.158V101.23H312.281C312.278 100.916 312.21 100.637 312.078 100.393C311.945 100.146 311.76 99.9516 311.521 99.81C311.286 99.6683 311.012 99.5975 310.699 99.5975C310.364 99.5975 310.07 99.6789 309.817 99.8416C309.564 100.001 309.367 100.212 309.225 100.475C309.086 100.734 309.015 101.019 309.012 101.329V102.292C309.012 102.696 309.086 103.042 309.234 103.332C309.382 103.618 309.588 103.838 309.853 103.992C310.119 104.142 310.429 104.218 310.785 104.218C311.023 104.218 311.238 104.185 311.431 104.118C311.624 104.049 311.791 103.948 311.933 103.815C312.075 103.683 312.182 103.519 312.254 103.323L313.782 103.494C313.685 103.898 313.502 104.251 313.23 104.552C312.962 104.851 312.619 105.083 312.2 105.248C311.781 105.411 311.301 105.493 310.762 105.493ZM318.464 105.357V96.0984H322.009C322.678 96.0984 323.234 96.2039 323.677 96.4149C324.123 96.6228 324.456 96.9077 324.676 97.2693C324.899 97.631 325.01 98.0409 325.01 98.499C325.01 98.8757 324.938 99.1982 324.793 99.4664C324.649 99.7316 324.454 99.9471 324.21 100.113C323.966 100.279 323.693 100.398 323.392 100.47V100.56C323.72 100.579 324.035 100.679 324.337 100.863C324.641 101.044 324.89 101.3 325.083 101.632C325.276 101.963 325.372 102.364 325.372 102.834C325.372 103.314 325.256 103.745 325.024 104.127C324.792 104.507 324.442 104.807 323.975 105.027C323.508 105.247 322.92 105.357 322.212 105.357H318.464ZM320.141 103.956H321.945C322.554 103.956 322.993 103.84 323.261 103.607C323.532 103.372 323.668 103.071 323.668 102.703C323.668 102.429 323.6 102.182 323.464 101.962C323.329 101.739 323.136 101.564 322.886 101.437C322.635 101.308 322.337 101.243 321.99 101.243H320.141V103.956ZM320.141 100.036H321.801C322.09 100.036 322.351 99.9833 322.583 99.8778C322.815 99.7693 322.997 99.6171 323.13 99.4212C323.265 99.2223 323.333 98.9872 323.333 98.716C323.333 98.3573 323.207 98.062 322.953 97.8299C322.703 97.5978 322.331 97.4818 321.837 97.4818H320.141V100.036ZM328.757 105.497C328.317 105.497 327.921 105.419 327.568 105.262C327.218 105.102 326.941 104.867 326.736 104.557C326.534 104.246 326.433 103.864 326.433 103.409C326.433 103.017 326.506 102.693 326.65 102.437C326.795 102.18 326.992 101.975 327.242 101.822C327.493 101.668 327.774 101.552 328.088 101.474C328.404 101.392 328.731 101.333 329.069 101.297C329.476 101.255 329.806 101.217 330.059 101.184C330.312 101.148 330.496 101.094 330.61 101.022C330.728 100.946 330.787 100.83 330.787 100.673V100.646C330.787 100.306 330.686 100.042 330.484 99.8552C330.282 99.6683 329.991 99.5749 329.611 99.5749C329.211 99.5749 328.893 99.6623 328.657 99.8371C328.425 100.012 328.269 100.218 328.187 100.456L326.659 100.239C326.78 99.8175 326.979 99.4649 327.256 99.1816C327.533 98.8953 327.872 98.6813 328.273 98.5397C328.674 98.395 329.117 98.3227 329.602 98.3227C329.937 98.3227 330.27 98.3618 330.601 98.4402C330.933 98.5186 331.236 98.6482 331.51 98.829C331.784 99.0068 332.004 99.2494 332.17 99.5568C332.339 99.8642 332.423 100.249 332.423 100.71V105.357H330.85V104.403H330.796C330.696 104.596 330.556 104.777 330.375 104.946C330.198 105.111 329.973 105.245 329.702 105.348C329.434 105.447 329.119 105.497 328.757 105.497ZM329.182 104.295C329.51 104.295 329.795 104.23 330.036 104.1C330.277 103.968 330.463 103.793 330.592 103.576C330.725 103.359 330.791 103.122 330.791 102.866V102.048C330.74 102.09 330.653 102.129 330.529 102.165C330.409 102.201 330.273 102.233 330.122 102.26C329.972 102.287 329.822 102.311 329.675 102.333C329.527 102.354 329.399 102.372 329.29 102.387C329.046 102.42 328.828 102.474 328.635 102.55C328.442 102.625 328.29 102.73 328.178 102.866C328.067 102.999 328.011 103.17 328.011 103.381C328.011 103.683 328.121 103.91 328.341 104.064C328.561 104.218 328.841 104.295 329.182 104.295ZM337.089 108.106C336.501 108.106 335.996 108.026 335.574 107.866C335.152 107.709 334.813 107.498 334.557 107.233C334.301 106.968 334.123 106.674 334.024 106.352L335.497 105.994C335.564 106.13 335.66 106.264 335.787 106.397C335.913 106.532 336.084 106.644 336.298 106.731C336.515 106.822 336.787 106.867 337.116 106.867C337.58 106.867 337.964 106.754 338.269 106.528C338.573 106.305 338.725 105.937 338.725 105.425V104.109H338.644C338.559 104.278 338.436 104.451 338.273 104.629C338.113 104.807 337.901 104.956 337.636 105.077C337.374 105.197 337.044 105.258 336.646 105.258C336.112 105.258 335.629 105.132 335.195 104.882C334.764 104.629 334.42 104.252 334.164 103.752C333.911 103.249 333.784 102.619 333.784 101.862C333.784 101.1 333.911 100.456 334.164 99.9321C334.42 99.4046 334.765 99.0053 335.199 98.734C335.633 98.4598 336.117 98.3227 336.65 98.3227C337.057 98.3227 337.392 98.392 337.654 98.5306C337.919 98.6662 338.13 98.8305 338.287 99.0234C338.443 99.2132 338.562 99.3926 338.644 99.5613H338.734V98.4131H340.348V105.47C340.348 106.064 340.207 106.555 339.923 106.944C339.64 107.333 339.253 107.623 338.761 107.816C338.27 108.009 337.713 108.106 337.089 108.106ZM337.102 103.974C337.449 103.974 337.744 103.889 337.988 103.72C338.232 103.552 338.418 103.309 338.544 102.993C338.671 102.676 338.734 102.296 338.734 101.853C338.734 101.416 338.671 101.034 338.544 100.705C338.421 100.377 338.237 100.122 337.993 99.9411C337.752 99.7572 337.455 99.6653 337.102 99.6653C336.738 99.6653 336.433 99.7603 336.189 99.9501C335.945 100.14 335.761 100.401 335.638 100.732C335.514 101.061 335.452 101.434 335.452 101.853C335.452 102.278 335.514 102.651 335.638 102.97C335.764 103.286 335.949 103.534 336.194 103.711C336.441 103.886 336.744 103.974 337.102 103.974Z" fill="black"/>
<path d="M256.19 160.94V142.423H257.376V160.94H256.19ZM259.901 148.166C259.824 147.481 259.505 146.951 258.946 146.575C258.387 146.194 257.683 146.003 256.834 146.003C256.226 146.003 255.701 146.1 255.257 146.293C254.813 146.481 254.469 146.741 254.223 147.074C253.982 147.402 253.861 147.775 253.861 148.195C253.861 148.547 253.943 148.851 254.107 149.106C254.276 149.362 254.495 149.577 254.765 149.75C255.04 149.919 255.334 150.061 255.648 150.177C255.961 150.288 256.263 150.379 256.552 150.452L257.998 150.828C258.471 150.944 258.956 151.1 259.452 151.298C259.949 151.496 260.41 151.756 260.834 152.079C261.258 152.402 261.601 152.803 261.861 153.28C262.126 153.757 262.259 154.329 262.259 154.994C262.259 155.833 262.042 156.578 261.608 157.229C261.179 157.88 260.554 158.394 259.734 158.77C258.92 159.146 257.933 159.334 256.776 159.334C255.667 159.334 254.707 159.158 253.897 158.806C253.087 158.454 252.453 157.955 251.995 157.309C251.537 156.658 251.284 155.886 251.235 154.994H253.478C253.521 155.529 253.695 155.976 253.998 156.332C254.307 156.684 254.7 156.947 255.178 157.121C255.66 157.29 256.188 157.374 256.762 157.374C257.393 157.374 257.955 157.275 258.447 157.077C258.944 156.875 259.334 156.595 259.619 156.238C259.903 155.877 260.045 155.455 260.045 154.973C260.045 154.534 259.92 154.174 259.669 153.895C259.423 153.615 259.088 153.384 258.664 153.2C258.244 153.017 257.769 152.856 257.239 152.716L255.489 152.238C254.302 151.915 253.362 151.44 252.668 150.813C251.978 150.187 251.633 149.357 251.633 148.325C251.633 147.472 251.865 146.727 252.328 146.09C252.791 145.454 253.417 144.959 254.208 144.607C254.999 144.25 255.891 144.072 256.885 144.072C257.888 144.072 258.772 144.248 259.539 144.6C260.311 144.952 260.918 145.437 261.362 146.054C261.806 146.666 262.037 147.37 262.056 148.166H259.901ZM270.347 144.275V159.088H268.105V146.517H268.018L264.474 148.831V146.69L268.17 144.275H270.347ZM274.044 156.195V154.387L280.445 144.275H281.87V146.936H280.966L276.387 154.184V154.3H285.161V156.195H274.044ZM281.067 159.088V155.645L281.082 154.821V144.275H283.201V159.088H281.067ZM288.579 159.226C288.183 159.226 287.843 159.086 287.559 158.806C287.274 158.522 287.132 158.179 287.132 157.779C287.132 157.384 287.274 157.046 287.559 156.766C287.843 156.482 288.183 156.34 288.579 156.34C288.974 156.34 289.314 156.482 289.599 156.766C289.883 157.046 290.025 157.384 290.025 157.779C290.025 158.044 289.958 158.288 289.823 158.51C289.693 158.727 289.519 158.9 289.302 159.03C289.085 159.161 288.844 159.226 288.579 159.226ZM297.64 144.072C298.301 144.077 298.952 144.197 299.593 144.434C300.235 144.67 300.813 145.056 301.329 145.591C301.85 146.126 302.265 146.85 302.573 147.761C302.887 148.668 303.046 149.796 303.051 151.146C303.051 152.443 302.92 153.598 302.66 154.611C302.4 155.619 302.026 156.47 301.539 157.164C301.057 157.859 300.471 158.387 299.781 158.748C299.092 159.11 298.315 159.291 297.452 159.291C296.57 159.291 295.786 159.117 295.101 158.77C294.417 158.423 293.86 157.943 293.43 157.331C293.001 156.713 292.734 156.004 292.628 155.204H294.834C294.978 155.841 295.273 156.356 295.716 156.752C296.165 157.142 296.743 157.338 297.452 157.338C298.537 157.338 299.383 156.865 299.991 155.92C300.599 154.97 300.905 153.644 300.91 151.942H300.794C300.543 152.356 300.23 152.713 299.854 153.012C299.482 153.311 299.065 153.543 298.602 153.707C298.139 153.871 297.645 153.953 297.119 153.953C296.266 153.953 295.49 153.743 294.79 153.323C294.091 152.904 293.534 152.328 293.119 151.595C292.705 150.862 292.497 150.025 292.497 149.085C292.497 148.149 292.71 147.3 293.134 146.539C293.563 145.777 294.161 145.174 294.928 144.73C295.699 144.282 296.603 144.062 297.64 144.072ZM297.647 145.953C297.083 145.953 296.575 146.093 296.121 146.372C295.673 146.647 295.318 147.021 295.058 147.493C294.798 147.961 294.667 148.482 294.667 149.056C294.667 149.63 294.793 150.15 295.044 150.618C295.299 151.081 295.646 151.45 296.085 151.725C296.529 151.995 297.035 152.13 297.604 152.13C298.028 152.13 298.424 152.048 298.79 151.884C299.157 151.72 299.477 151.493 299.752 151.204C300.027 150.91 300.242 150.577 300.396 150.206C300.55 149.835 300.628 149.444 300.628 149.034C300.628 148.489 300.497 147.983 300.237 147.515C299.981 147.047 299.629 146.671 299.181 146.387C298.732 146.097 298.221 145.953 297.647 145.953ZM310.59 144.072C311.25 144.077 311.901 144.197 312.543 144.434C313.184 144.67 313.763 145.056 314.278 145.591C314.799 146.126 315.214 146.85 315.523 147.761C315.836 148.668 315.995 149.796 316 151.146C316 152.443 315.87 153.598 315.609 154.611C315.349 155.619 314.975 156.47 314.488 157.164C314.006 157.859 313.42 158.387 312.731 158.748C312.041 159.11 311.265 159.291 310.401 159.291C309.519 159.291 308.735 159.117 308.051 158.77C307.366 158.423 306.809 157.943 306.38 157.331C305.951 156.713 305.683 156.004 305.577 155.204H307.783C307.928 155.841 308.222 156.356 308.665 156.752C309.114 157.142 309.693 157.338 310.401 157.338C311.486 157.338 312.333 156.865 312.94 155.92C313.548 154.97 313.854 153.644 313.859 151.942H313.743C313.492 152.356 313.179 152.713 312.803 153.012C312.432 153.311 312.014 153.543 311.552 153.707C311.089 153.871 310.594 153.953 310.069 153.953C309.215 153.953 308.439 153.743 307.74 153.323C307.04 152.904 306.483 152.328 306.069 151.595C305.654 150.862 305.447 150.025 305.447 149.085C305.447 148.149 305.659 147.3 306.083 146.539C306.512 145.777 307.11 145.174 307.877 144.73C308.649 144.282 309.553 144.062 310.59 144.072ZM310.597 145.953C310.033 145.953 309.524 146.093 309.071 146.372C308.622 146.647 308.268 147.021 308.007 147.493C307.747 147.961 307.617 148.482 307.617 149.056C307.617 149.63 307.742 150.15 307.993 150.618C308.248 151.081 308.596 151.45 309.034 151.725C309.478 151.995 309.984 152.13 310.553 152.13C310.978 152.13 311.373 152.048 311.74 151.884C312.106 151.72 312.427 151.493 312.702 151.204C312.977 150.91 313.191 150.577 313.345 150.206C313.5 149.835 313.577 149.444 313.577 149.034C313.577 148.489 313.447 147.983 313.186 147.515C312.931 147.047 312.579 146.671 312.13 146.387C311.682 146.097 311.171 145.953 310.597 145.953Z" fill="#0085FF"/>
<g clip-path="url(#clip3_213_38)">
<g clip-path="url(#clip4_213_38)">
<path d="M258.129 111.597C258.001 111.342 257.73 111.18 257.432 111.18C257.134 111.18 256.866 111.342 256.735 111.597L255.178 114.667L251.702 115.159C251.412 115.201 251.17 115.396 251.08 115.663C250.991 115.93 251.063 116.224 251.271 116.421L253.794 118.814L253.198 122.195C253.15 122.473 253.271 122.756 253.511 122.921C253.75 123.086 254.067 123.107 254.329 122.974L257.434 121.385L260.54 122.974C260.802 123.107 261.119 123.088 261.358 122.921C261.598 122.754 261.719 122.473 261.671 122.195L261.073 118.814L263.595 116.421C263.803 116.224 263.878 115.93 263.786 115.663C263.694 115.396 263.455 115.201 263.164 115.159L259.686 114.667L258.129 111.597Z" fill="#FFB800"/>
<path d="M314.242 119.914L314.244 119.912L314.883 120.239L316.945 121.295L316.546 119.03L316.43 118.364L316.931 117.888L318.628 116.28L316.302 115.951L315.592 115.851L315.28 115.234L314.244 113.196L314.242 113.203V119.914ZM318.48 122.195C318.529 122.474 318.408 122.757 318.168 122.922C317.928 123.086 317.611 123.107 317.35 122.975L314.244 121.385L311.138 122.975C310.877 123.107 310.56 123.086 310.32 122.922C310.08 122.757 309.959 122.474 310.008 122.195L310.606 118.814L308.083 116.422C307.875 116.225 307.8 115.93 307.892 115.663C307.984 115.396 308.224 115.201 308.514 115.159L311.99 114.667L313.549 111.597C313.68 111.342 313.949 111.18 314.246 111.18C314.544 111.18 314.813 111.342 314.944 111.597L316.5 114.667L319.976 115.159C320.267 115.201 320.509 115.396 320.598 115.663C320.688 115.93 320.615 116.225 320.407 116.422L317.885 118.814L318.48 122.195Z" fill="#FFB800"/>
<path d="M272.332 111.597C272.204 111.342 271.933 111.18 271.635 111.18C271.337 111.18 271.068 111.342 270.938 111.597L269.381 114.667L265.905 115.159C265.615 115.201 265.373 115.396 265.283 115.663C265.193 115.93 265.266 116.224 265.474 116.421L267.997 118.814L267.401 122.195C267.353 122.473 267.474 122.756 267.713 122.921C267.953 123.086 268.27 123.107 268.531 122.974L271.637 121.385L274.743 122.974C275.004 123.107 275.321 123.088 275.561 122.921C275.801 122.754 275.922 122.473 275.873 122.195L275.275 118.814L277.798 116.421C278.006 116.224 278.081 115.93 277.989 115.663C277.897 115.396 277.657 115.201 277.367 115.159L273.888 114.667L272.332 111.597Z" fill="#FFB800"/>
<path d="M286.535 111.597C286.406 111.342 286.135 111.18 285.837 111.18C285.54 111.18 285.271 111.342 285.14 111.597L283.584 114.667L280.108 115.159C279.817 115.201 279.575 115.396 279.486 115.663C279.396 115.93 279.469 116.224 279.677 116.421L282.199 118.814L281.604 122.195C281.555 122.473 281.676 122.756 281.916 122.921C282.156 123.086 282.473 123.107 282.734 122.974L285.84 121.385L288.946 122.974C289.207 123.107 289.524 123.088 289.764 122.921C290.003 122.754 290.124 122.473 290.076 122.195L289.478 118.814L292 116.421C292.209 116.224 292.284 115.93 292.192 115.663C292.1 115.396 291.86 115.201 291.57 115.159L288.091 114.667L286.535 111.597Z" fill="#FFB800"/>
<path d="M300.737 111.597C300.609 111.342 300.338 111.18 300.04 111.18C299.743 111.18 299.474 111.342 299.343 111.597L297.787 114.667L294.311 115.159C294.02 115.201 293.778 115.396 293.688 115.663C293.599 115.93 293.671 116.224 293.88 116.421L296.402 118.814L295.807 122.195C295.758 122.473 295.879 122.756 296.119 122.921C296.358 123.086 296.676 123.107 296.937 122.974L300.043 121.385L303.148 122.974C303.41 123.107 303.727 123.088 303.967 122.921C304.206 122.754 304.327 122.473 304.279 122.195L303.681 118.814L306.203 116.421C306.411 116.224 306.486 115.93 306.394 115.663C306.302 115.396 306.063 115.201 305.772 115.159L302.294 114.667L300.737 111.597Z" fill="#FFB800"/>
</g>
</g>
</g>
<g clip-path="url(#clip5_213_38)">
<g clip-path="url(#clip6_213_38)">
<rect x="250.194" y="179.924" width="120.515" height="24.6123" rx="12.3061" fill="#0085FF"/>
<path d="M281.555 196.017H280.004L282.829 187.992H284.623L287.452 196.017H285.9L283.757 189.638H283.694L281.555 196.017ZM281.606 192.87H285.838V194.038H281.606V192.87ZM290.496 196.122C290.023 196.122 289.6 196.001 289.227 195.758C288.853 195.515 288.558 195.162 288.341 194.7C288.124 194.238 288.016 193.676 288.016 193.015C288.016 192.347 288.126 191.783 288.345 191.323C288.567 190.86 288.866 190.512 289.242 190.277C289.619 190.039 290.038 189.92 290.5 189.92C290.853 189.92 291.143 189.98 291.37 190.1C291.597 190.218 291.777 190.36 291.911 190.527C292.044 190.692 292.147 190.847 292.22 190.994H292.279V187.992H293.701V196.017H292.306V195.068H292.22C292.147 195.215 292.041 195.37 291.903 195.535C291.764 195.697 291.581 195.835 291.354 195.95C291.127 196.065 290.841 196.122 290.496 196.122ZM290.892 194.959C291.192 194.959 291.448 194.878 291.66 194.716C291.871 194.551 292.032 194.323 292.142 194.03C292.251 193.738 292.306 193.397 292.306 193.008C292.306 192.618 292.251 192.28 292.142 191.993C292.035 191.705 291.875 191.482 291.664 191.323C291.455 191.163 291.197 191.084 290.892 191.084C290.576 191.084 290.312 191.166 290.1 191.331C289.889 191.495 289.73 191.722 289.622 192.012C289.515 192.302 289.462 192.634 289.462 193.008C289.462 193.384 289.515 193.719 289.622 194.014C289.732 194.307 289.893 194.538 290.104 194.708C290.319 194.875 290.581 194.959 290.892 194.959ZM297.446 196.122C296.973 196.122 296.55 196.001 296.176 195.758C295.803 195.515 295.508 195.162 295.291 194.7C295.074 194.238 294.966 193.676 294.966 193.015C294.966 192.347 295.075 191.783 295.295 191.323C295.517 190.86 295.816 190.512 296.192 190.277C296.568 190.039 296.987 189.92 297.45 189.92C297.802 189.92 298.092 189.98 298.319 190.1C298.547 190.218 298.727 190.36 298.86 190.527C298.993 190.692 299.096 190.847 299.17 190.994H299.228V187.992H300.651V196.017H299.256V195.068H299.17C299.096 195.215 298.991 195.37 298.852 195.535C298.714 195.697 298.531 195.835 298.304 195.95C298.076 196.065 297.79 196.122 297.446 196.122ZM297.841 194.959C298.142 194.959 298.398 194.878 298.609 194.716C298.821 194.551 298.982 194.323 299.091 194.03C299.201 193.738 299.256 193.397 299.256 193.008C299.256 192.618 299.201 192.28 299.091 191.993C298.984 191.705 298.825 191.482 298.613 191.323C298.404 191.163 298.147 191.084 297.841 191.084C297.525 191.084 297.262 191.166 297.05 191.331C296.838 191.495 296.679 191.722 296.572 192.012C296.465 192.302 296.411 192.634 296.411 193.008C296.411 193.384 296.465 193.719 296.572 194.014C296.682 194.307 296.842 194.538 297.054 194.708C297.268 194.875 297.531 194.959 297.841 194.959ZM307.904 189.999V191.096H304.444V189.999H307.904ZM305.298 188.557H306.717V194.206C306.717 194.397 306.745 194.543 306.803 194.645C306.863 194.745 306.941 194.812 307.038 194.849C307.135 194.886 307.242 194.904 307.359 194.904C307.448 194.904 307.529 194.897 307.602 194.884C307.678 194.871 307.735 194.859 307.775 194.849L308.014 195.958C307.938 195.984 307.829 196.013 307.688 196.044C307.55 196.075 307.38 196.094 307.179 196.099C306.824 196.109 306.504 196.056 306.219 195.938C305.934 195.818 305.708 195.633 305.541 195.382C305.377 195.131 305.296 194.818 305.298 194.442V188.557ZM311.65 196.134C311.063 196.134 310.553 196.005 310.122 195.746C309.691 195.488 309.357 195.126 309.119 194.661C308.884 194.196 308.767 193.653 308.767 193.031C308.767 192.409 308.884 191.865 309.119 191.397C309.357 190.93 309.691 190.567 310.122 190.308C310.553 190.049 311.063 189.92 311.65 189.92C312.238 189.92 312.747 190.049 313.178 190.308C313.609 190.567 313.942 190.93 314.178 191.397C314.415 191.865 314.534 192.409 314.534 193.031C314.534 193.653 314.415 194.196 314.178 194.661C313.942 195.126 313.609 195.488 313.178 195.746C312.747 196.005 312.238 196.134 311.65 196.134ZM311.658 194.998C311.977 194.998 312.243 194.91 312.458 194.735C312.672 194.558 312.831 194.32 312.936 194.022C313.043 193.725 313.096 193.393 313.096 193.027C313.096 192.659 313.043 192.326 312.936 192.028C312.831 191.728 312.672 191.489 312.458 191.311C312.243 191.133 311.977 191.045 311.658 191.045C311.332 191.045 311.06 191.133 310.843 191.311C310.629 191.489 310.468 191.728 310.361 192.028C310.257 192.326 310.205 192.659 310.205 193.027C310.205 193.393 310.257 193.725 310.361 194.022C310.468 194.32 310.629 194.558 310.843 194.735C311.06 194.91 311.332 194.998 311.658 194.998ZM325.406 190.7H323.94C323.898 190.46 323.821 190.247 323.709 190.061C323.597 189.873 323.457 189.714 323.29 189.583C323.123 189.453 322.932 189.355 322.718 189.289C322.506 189.221 322.278 189.187 322.032 189.187C321.596 189.187 321.209 189.297 320.872 189.517C320.535 189.733 320.272 190.052 320.081 190.473C319.89 190.891 319.795 191.401 319.795 192.005C319.795 192.618 319.89 193.136 320.081 193.556C320.274 193.974 320.538 194.29 320.872 194.504C321.209 194.716 321.595 194.822 322.028 194.822C322.269 194.822 322.493 194.79 322.702 194.728C322.914 194.662 323.103 194.567 323.27 194.442C323.44 194.316 323.582 194.162 323.697 193.979C323.815 193.796 323.896 193.587 323.94 193.352L325.406 193.36C325.351 193.742 325.232 194.099 325.049 194.434C324.869 194.768 324.632 195.063 324.34 195.319C324.047 195.573 323.705 195.771 323.313 195.915C322.922 196.056 322.487 196.126 322.009 196.126C321.303 196.126 320.674 195.963 320.12 195.637C319.566 195.31 319.13 194.839 318.812 194.222C318.493 193.606 318.334 192.866 318.334 192.005C318.334 191.14 318.494 190.401 318.815 189.787C319.137 189.17 319.574 188.699 320.128 188.373C320.682 188.046 321.309 187.883 322.009 187.883C322.455 187.883 322.871 187.945 323.255 188.071C323.639 188.196 323.981 188.38 324.281 188.623C324.581 188.864 324.828 189.159 325.022 189.509C325.217 189.856 325.345 190.253 325.406 190.7ZM328.406 196.138C328.024 196.138 327.681 196.07 327.375 195.934C327.072 195.796 326.832 195.592 326.654 195.323C326.479 195.054 326.392 194.722 326.392 194.328C326.392 193.988 326.455 193.708 326.58 193.486C326.705 193.264 326.876 193.086 327.093 192.953C327.31 192.819 327.554 192.719 327.826 192.651C328.1 192.58 328.384 192.53 328.676 192.498C329.029 192.462 329.315 192.429 329.534 192.4C329.754 192.369 329.913 192.322 330.012 192.259C330.114 192.194 330.165 192.093 330.165 191.958V191.934C330.165 191.639 330.077 191.41 329.902 191.248C329.727 191.086 329.475 191.005 329.146 191.005C328.799 191.005 328.523 191.081 328.32 191.233C328.118 191.384 327.983 191.563 327.912 191.769L326.588 191.581C326.692 191.216 326.865 190.91 327.105 190.665C327.345 190.416 327.639 190.231 327.987 190.108C328.334 189.983 328.718 189.92 329.138 189.92C329.428 189.92 329.717 189.954 330.004 190.022C330.292 190.09 330.554 190.202 330.792 190.359C331.03 190.513 331.22 190.723 331.364 190.99C331.51 191.256 331.583 191.589 331.583 191.989V196.017H330.22V195.19H330.173C330.087 195.357 329.965 195.514 329.808 195.66C329.654 195.804 329.46 195.92 329.225 196.009C328.992 196.095 328.719 196.138 328.406 196.138ZM328.774 195.096C329.059 195.096 329.306 195.04 329.515 194.927C329.724 194.812 329.884 194.661 329.996 194.473C330.111 194.285 330.169 194.08 330.169 193.858V193.149C330.124 193.185 330.049 193.219 329.942 193.25C329.837 193.282 329.72 193.309 329.589 193.333C329.458 193.356 329.329 193.377 329.201 193.395C329.073 193.414 328.962 193.429 328.868 193.442C328.657 193.471 328.467 193.518 328.3 193.583C328.133 193.649 328.001 193.74 327.904 193.858C327.808 193.973 327.759 194.122 327.759 194.304C327.759 194.566 327.855 194.763 328.045 194.896C328.236 195.029 328.479 195.096 328.774 195.096ZM333.009 196.017V189.999H334.385V191.002H334.447C334.557 190.654 334.745 190.386 335.012 190.198C335.281 190.008 335.587 189.912 335.932 189.912C336.011 189.912 336.098 189.916 336.195 189.924C336.294 189.929 336.376 189.938 336.442 189.951V191.256C336.381 191.235 336.286 191.217 336.156 191.201C336.028 191.183 335.904 191.174 335.783 191.174C335.525 191.174 335.292 191.23 335.086 191.342C334.882 191.452 334.722 191.605 334.604 191.801C334.486 191.997 334.428 192.223 334.428 192.479V196.017H333.009ZM340.712 189.999V191.096H337.253V189.999H340.712ZM338.107 188.557H339.525V194.206C339.525 194.397 339.554 194.543 339.611 194.645C339.671 194.745 339.75 194.812 339.846 194.849C339.943 194.886 340.05 194.904 340.168 194.904C340.256 194.904 340.337 194.897 340.411 194.884C340.486 194.871 340.544 194.859 340.583 194.849L340.822 195.958C340.746 195.984 340.638 196.013 340.497 196.044C340.358 196.075 340.188 196.094 339.987 196.099C339.632 196.109 339.312 196.056 339.027 195.938C338.743 195.818 338.517 195.633 338.35 195.382C338.185 195.131 338.104 194.818 338.107 194.442V188.557Z" fill="white"/>
</g>
<g clip-path="url(#clip7_213_38)">
<path d="M287.738 223.175V215.151H290.81C291.39 215.151 291.872 215.242 292.256 215.425C292.642 215.605 292.931 215.852 293.122 216.166C293.315 216.479 293.412 216.834 293.412 217.231C293.412 217.558 293.349 217.837 293.224 218.07C293.098 218.3 292.93 218.486 292.718 218.63C292.507 218.774 292.27 218.877 292.009 218.94V219.018C292.294 219.034 292.567 219.121 292.828 219.28C293.092 219.437 293.307 219.659 293.474 219.947C293.641 220.234 293.725 220.581 293.725 220.989C293.725 221.404 293.624 221.778 293.423 222.109C293.222 222.438 292.919 222.698 292.514 222.889C292.11 223.08 291.6 223.175 290.986 223.175H287.738ZM289.192 221.96H290.755C291.283 221.96 291.663 221.86 291.895 221.659C292.13 221.455 292.248 221.194 292.248 220.875C292.248 220.637 292.189 220.423 292.072 220.233C291.954 220.039 291.787 219.888 291.57 219.778C291.353 219.666 291.095 219.61 290.794 219.61H289.192V221.96ZM289.192 218.563H290.63C290.881 218.563 291.107 218.518 291.308 218.426C291.509 218.332 291.667 218.2 291.782 218.031C291.899 217.858 291.958 217.654 291.958 217.419C291.958 217.109 291.848 216.853 291.629 216.651C291.412 216.45 291.09 216.35 290.661 216.35H289.192V218.563ZM298.763 220.644V217.157H300.181V223.175H298.806V222.105H298.743C298.607 222.442 298.384 222.718 298.073 222.932C297.765 223.146 297.385 223.253 296.933 223.253C296.539 223.253 296.19 223.166 295.887 222.991C295.586 222.813 295.351 222.556 295.182 222.219C295.012 221.879 294.927 221.469 294.927 220.989V217.157H296.345V220.769C296.345 221.151 296.45 221.454 296.659 221.678C296.868 221.903 297.142 222.015 297.481 222.015C297.69 222.015 297.893 221.964 298.089 221.862C298.285 221.761 298.445 221.609 298.571 221.408C298.699 221.204 298.763 220.95 298.763 220.644ZM302.521 225.432C302.328 225.432 302.149 225.416 301.984 225.385C301.822 225.356 301.693 225.322 301.596 225.283L301.925 224.178C302.132 224.238 302.316 224.267 302.478 224.264C302.64 224.262 302.782 224.211 302.905 224.111C303.03 224.015 303.136 223.853 303.222 223.626L303.344 223.3L301.161 217.157H302.666L304.053 221.702H304.116L305.506 217.157H307.015L304.605 223.904C304.493 224.222 304.344 224.495 304.159 224.723C303.973 224.952 303.746 225.127 303.477 225.248C303.211 225.37 302.892 225.432 302.521 225.432ZM317.39 215.151V223.175H316.097L312.316 217.709H312.249V223.175H310.796V215.151H312.097L315.874 220.62H315.944V215.151H317.39ZM321.536 223.292C320.948 223.292 320.439 223.163 320.008 222.905C319.577 222.646 319.243 222.284 319.005 221.819C318.77 221.354 318.652 220.811 318.652 220.189C318.652 219.568 318.77 219.023 319.005 218.556C319.243 218.088 319.577 217.725 320.008 217.466C320.439 217.208 320.948 217.079 321.536 217.079C322.124 217.079 322.633 217.208 323.064 217.466C323.495 217.725 323.828 218.088 324.063 218.556C324.301 219.023 324.42 219.568 324.42 220.189C324.42 220.811 324.301 221.354 324.063 221.819C323.828 222.284 323.495 222.646 323.064 222.905C322.633 223.163 322.124 223.292 321.536 223.292ZM321.544 222.156C321.863 222.156 322.129 222.069 322.343 221.894C322.557 221.716 322.717 221.478 322.821 221.181C322.928 220.883 322.982 220.551 322.982 220.186C322.982 219.817 322.928 219.484 322.821 219.186C322.717 218.886 322.557 218.647 322.343 218.469C322.129 218.292 321.863 218.203 321.544 218.203C321.217 218.203 320.946 218.292 320.729 218.469C320.515 218.647 320.354 218.886 320.247 219.186C320.143 219.484 320.09 219.817 320.09 220.186C320.09 220.551 320.143 220.883 320.247 221.181C320.354 221.478 320.515 221.716 320.729 221.894C320.946 222.069 321.217 222.156 321.544 222.156ZM326.693 223.175L324.993 217.157H326.438L327.496 221.388H327.551L328.633 217.157H330.063L331.144 221.365H331.203L332.245 217.157H333.695L331.99 223.175H330.513L329.385 219.108H329.302L328.174 223.175H326.693Z" fill="black"/>
</g>
<rect x="250.618" y="208.356" width="119.667" height="22.0662" rx="11.0331" stroke="black" stroke-width="0.8487"/>
</g>
</g>
<defs>
<clipPath id="clip0_213_38">
<rect width="439.626" height="359" fill="white" transform="translate(0.676117)"/>
</clipPath>
<clipPath id="clip1_213_38">
<rect width="442.173" height="300.44" fill="white" transform="translate(-1.87 35.6454)"/>
</clipPath>
<clipPath id="clip2_213_38">
<rect width="95.0544" height="73.8369" fill="white" transform="translate(250.194 90.8109)"/>
</clipPath>
<clipPath id="clip3_213_38">
<rect width="69.5934" height="12.7305" fill="white" transform="translate(251.043 111.18)"/>
</clipPath>
<clipPath id="clip4_213_38">
<rect width="69.5934" height="11.8818" fill="white" transform="translate(251.043 111.18)"/>
</clipPath>
<clipPath id="clip5_213_38">
<rect width="120.515" height="55.1655" fill="white" transform="translate(250.194 177.378)"/>
</clipPath>
<clipPath id="clip6_213_38">
<rect x="250.194" y="179.924" width="120.515" height="24.6123" rx="12.3061" fill="white"/>
</clipPath>
<clipPath id="clip7_213_38">
<rect x="250.194" y="207.931" width="120.515" height="22.9149" rx="11.4574" fill="white"/>
</clipPath>
</defs>
</svg>
