<svg width="194" height="325" viewBox="0 0 194 325" fill="none" xmlns="http://www.w3.org/2000/svg">
<rect x="-1.90735e-05" y="0.822693" width="193.504" height="323.355" rx="12.7305" fill="#1D1D1D"/>
<g clip-path="url(#clip0_29_8)">
<rect x="11.0331" y="13.5532" width="173.135" height="301.288" rx="12.7305" fill="white"/>
<path d="M11.0331 13.5532H184.168V126.43C184.168 131.117 180.368 134.917 175.681 134.917H19.5201C14.8328 134.917 11.0331 131.117 11.0331 126.43V13.5532Z" fill="#F2F2F2"/>
<path d="M78.9291 66.1726C78.9291 66.1726 90.2024 31.581 97.9527 32.2337C105.703 32.8864 116.272 66.1726 116.272 66.1726" stroke="black" stroke-width="2.5461"/>
<path d="M119.311 64.3005C122.91 68.9849 131.548 118.841 131.548 118.841C131.548 118.841 123.63 122.187 97.716 122.187C71.8018 122.187 62.8038 118.841 62.8038 118.841C62.8038 118.841 70.722 67.6465 74.6811 64.3005C76.6985 62.5956 86.5585 66.2997 97.716 66.3081C108.874 66.3166 117.546 62.003 119.311 64.3005Z" fill="#1D1D1D"/>
<g clip-path="url(#clip1_29_8)">
<path d="M53.0183 157.95V148.692H56.5626C57.2317 148.692 57.7877 148.797 58.2307 149.008C58.6768 149.216 59.0098 149.501 59.2298 149.863C59.4529 150.224 59.5644 150.634 59.5644 151.092C59.5644 151.469 59.492 151.792 59.3474 152.06C59.2027 152.325 59.0083 152.54 58.7642 152.706C58.5201 152.872 58.2473 152.991 57.9459 153.063V153.154C58.2744 153.172 58.5894 153.273 58.8908 153.457C59.1952 153.638 59.4438 153.894 59.6367 154.225C59.8296 154.557 59.926 154.958 59.926 155.428C59.926 155.907 59.81 156.338 59.5779 156.721C59.3459 157.1 58.9963 157.4 58.5291 157.62C58.062 157.84 57.4743 157.95 56.766 157.95H53.0183ZM54.6955 156.549H56.4993C57.1081 156.549 57.5466 156.433 57.8148 156.201C58.0861 155.966 58.2217 155.664 58.2217 155.297C58.2217 155.022 58.1539 154.775 58.0183 154.555C57.8826 154.332 57.6898 154.157 57.4396 154.031C57.1895 153.901 56.8911 153.836 56.5445 153.836H54.6955V156.549ZM54.6955 152.629H56.3546C56.644 152.629 56.9047 152.577 57.1367 152.471C57.3688 152.363 57.5511 152.21 57.6837 152.015C57.8194 151.816 57.8872 151.581 57.8872 151.309C57.8872 150.951 57.7606 150.655 57.5074 150.423C57.2573 150.191 56.8851 150.075 56.3908 150.075H54.6955V152.629ZM62.9493 148.692V157.95H61.3128V148.692H62.9493ZM66.6303 158.09C66.1903 158.09 65.794 158.012 65.4414 157.855C65.0918 157.696 64.8145 157.461 64.6096 157.15C64.4076 156.84 64.3067 156.457 64.3067 156.002C64.3067 155.61 64.379 155.286 64.5237 155.03C64.6683 154.774 64.8657 154.569 65.1159 154.415C65.366 154.261 65.6478 154.145 65.9613 154.067C66.2777 153.986 66.6047 153.927 66.9423 153.891C67.3491 153.848 67.6792 153.811 67.9323 153.778C68.1855 153.742 68.3693 153.687 68.4839 153.615C68.6014 153.54 68.6602 153.424 68.6602 153.267V153.24C68.6602 152.899 68.5592 152.635 68.3573 152.449C68.1553 152.262 67.8645 152.168 67.4848 152.168C67.0839 152.168 66.766 152.256 66.5309 152.43C66.2988 152.605 66.1421 152.812 66.0607 153.05L64.5327 152.833C64.6533 152.411 64.8522 152.058 65.1294 151.775C65.4067 151.489 65.7458 151.275 66.1466 151.133C66.5475 150.988 66.9905 150.916 67.4757 150.916C67.8103 150.916 68.1433 150.955 68.4748 151.034C68.8063 151.112 69.1092 151.242 69.3835 151.422C69.6578 151.6 69.8778 151.843 70.0435 152.15C70.2123 152.458 70.2967 152.842 70.2967 153.303V157.95H68.7235V156.996H68.6692C68.5698 157.189 68.4296 157.37 68.2488 157.539C68.071 157.705 67.8464 157.839 67.5752 157.941C67.307 158.041 66.992 158.09 66.6303 158.09ZM67.0553 156.888C67.3838 156.888 67.6686 156.823 67.9097 156.694C68.1508 156.561 68.3362 156.386 68.4658 156.169C68.5984 155.952 68.6647 155.716 68.6647 155.459V154.641C68.6135 154.683 68.5261 154.723 68.4025 154.759C68.2819 154.795 68.1463 154.826 67.9956 154.854C67.8449 154.881 67.6957 154.905 67.5481 154.926C67.4004 154.947 67.2723 154.965 67.1638 154.98C66.9197 155.013 66.7012 155.068 66.5083 155.143C66.3154 155.218 66.1632 155.324 66.0517 155.459C65.9402 155.592 65.8844 155.764 65.8844 155.975C65.8844 156.276 65.9944 156.504 66.2144 156.657C66.4344 156.811 66.7147 156.888 67.0553 156.888ZM74.9712 158.086C74.278 158.086 73.6828 157.934 73.1855 157.629C72.6912 157.325 72.3099 156.905 72.0417 156.368C71.7765 155.829 71.6439 155.208 71.6439 154.506C71.6439 153.8 71.7795 153.178 72.0508 152.638C72.322 152.096 72.7048 151.674 73.199 151.373C73.6963 151.068 74.284 150.916 74.9621 150.916C75.5257 150.916 76.0245 151.02 76.4585 151.228C76.8955 151.433 77.2436 151.724 77.5028 152.1C77.762 152.474 77.9097 152.911 77.9458 153.411H76.3817C76.3184 153.077 76.1677 152.798 75.9296 152.575C75.6945 152.349 75.3795 152.236 74.9847 152.236C74.6502 152.236 74.3563 152.327 74.1032 152.507C73.85 152.685 73.6526 152.941 73.511 153.276C73.3723 153.61 73.303 154.011 73.303 154.478C73.303 154.952 73.3723 155.358 73.511 155.699C73.6496 156.037 73.844 156.297 74.0941 156.481C74.3473 156.662 74.6442 156.752 74.9847 156.752C75.2258 156.752 75.4413 156.707 75.6312 156.617C75.8241 156.523 75.9853 156.389 76.1149 156.214C76.2445 156.04 76.3334 155.827 76.3817 155.577H77.9458C77.9067 156.068 77.762 156.504 77.5118 156.883C77.2617 157.26 76.9211 157.556 76.4902 157.77C76.0592 157.98 75.5528 158.086 74.9712 158.086ZM80.7815 155.771L80.777 153.796H81.0392L83.5346 151.006H85.4469L82.3773 154.424H82.0383L80.7815 155.771ZM79.2896 157.95V148.692H80.9262V157.95H79.2896ZM83.6477 157.95L81.3873 154.79L82.4903 153.638L85.6052 157.95H83.6477ZM89.3608 150.098V148.692H96.7477V150.098H93.8861V157.95H92.2224V150.098H89.3608ZM100.121 158.086C99.4432 158.086 98.8555 157.937 98.3583 157.638C97.861 157.34 97.4752 156.923 97.2009 156.386C96.9297 155.85 96.7941 155.223 96.7941 154.506C96.7941 153.788 96.9297 153.16 97.2009 152.62C97.4752 152.081 97.861 151.662 98.3583 151.364C98.8555 151.065 99.4432 150.916 100.121 150.916C100.799 150.916 101.387 151.065 101.884 151.364C102.382 151.662 102.766 152.081 103.037 152.62C103.312 153.16 103.449 153.788 103.449 154.506C103.449 155.223 103.312 155.85 103.037 156.386C102.766 156.923 102.382 157.34 101.884 157.638C101.387 157.937 100.799 158.086 100.121 158.086ZM100.13 156.775C100.498 156.775 100.806 156.674 101.053 156.472C101.3 156.267 101.484 155.993 101.604 155.649C101.728 155.306 101.79 154.923 101.79 154.501C101.79 154.076 101.728 153.692 101.604 153.348C101.484 153.002 101.3 152.726 101.053 152.521C100.806 152.316 100.498 152.213 100.13 152.213C99.7537 152.213 99.4402 152.316 99.1901 152.521C98.9429 152.726 98.7576 153.002 98.634 153.348C98.5135 153.692 98.4532 154.076 98.4532 154.501C98.4532 154.923 98.5135 155.306 98.634 155.649C98.7576 155.993 98.9429 156.267 99.1901 156.472C99.4402 156.674 99.7537 156.775 100.13 156.775ZM108.305 151.006V152.272H104.313V151.006H108.305ZM105.299 149.343H106.935V155.862C106.935 156.082 106.968 156.251 107.035 156.368C107.104 156.483 107.194 156.561 107.306 156.603C107.418 156.645 107.541 156.666 107.677 156.666C107.779 156.666 107.873 156.659 107.957 156.644C108.044 156.629 108.111 156.615 108.156 156.603L108.432 157.883C108.344 157.913 108.219 157.946 108.056 157.982C107.897 158.018 107.701 158.039 107.469 158.045C107.059 158.057 106.69 157.996 106.361 157.86C106.033 157.721 105.772 157.507 105.579 157.218C105.389 156.929 105.296 156.567 105.299 156.133V149.343ZM112.673 158.086C111.977 158.086 111.376 157.941 110.869 157.652C110.366 157.36 109.979 156.947 109.708 156.413C109.436 155.877 109.301 155.245 109.301 154.519C109.301 153.805 109.436 153.178 109.708 152.638C109.982 152.096 110.365 151.674 110.856 151.373C111.347 151.068 111.924 150.916 112.587 150.916C113.015 150.916 113.419 150.985 113.799 151.124C114.182 151.26 114.519 151.471 114.812 151.757C115.107 152.043 115.339 152.408 115.508 152.851C115.677 153.291 115.761 153.815 115.761 154.424V154.926H110.069V153.823H114.192C114.189 153.509 114.121 153.231 113.989 152.987C113.856 152.739 113.671 152.545 113.433 152.403C113.198 152.262 112.923 152.191 112.61 152.191C112.275 152.191 111.982 152.272 111.728 152.435C111.475 152.595 111.278 152.806 111.136 153.068C110.998 153.327 110.927 153.612 110.924 153.922V154.885C110.924 155.289 110.998 155.636 111.145 155.925C111.293 156.211 111.499 156.431 111.765 156.585C112.03 156.736 112.34 156.811 112.696 156.811C112.934 156.811 113.149 156.778 113.342 156.712C113.535 156.642 113.703 156.541 113.844 156.409C113.986 156.276 114.093 156.112 114.165 155.916L115.693 156.088C115.597 156.492 115.413 156.844 115.142 157.146C114.873 157.444 114.53 157.676 114.111 157.842C113.692 158.005 113.213 158.086 112.673 158.086ZM120.376 157.95V148.692H123.92C124.589 148.692 125.145 148.797 125.588 149.008C126.034 149.216 126.367 149.501 126.587 149.863C126.81 150.224 126.922 150.634 126.922 151.092C126.922 151.469 126.849 151.792 126.705 152.06C126.56 152.325 126.366 152.54 126.121 152.706C125.877 152.872 125.605 152.991 125.303 153.063V153.154C125.632 153.172 125.947 153.273 126.248 153.457C126.552 153.638 126.801 153.894 126.994 154.225C127.187 154.557 127.283 154.958 127.283 155.428C127.283 155.907 127.167 156.338 126.935 156.721C126.703 157.1 126.354 157.4 125.886 157.62C125.419 157.84 124.832 157.95 124.123 157.95H120.376ZM122.053 156.549H123.857C124.465 156.549 124.904 156.433 125.172 156.201C125.443 155.966 125.579 155.664 125.579 155.297C125.579 155.022 125.511 154.775 125.376 154.555C125.24 154.332 125.047 154.157 124.797 154.031C124.547 153.901 124.248 153.836 123.902 153.836H122.053V156.549ZM122.053 152.629H123.712C124.001 152.629 124.262 152.577 124.494 152.471C124.726 152.363 124.908 152.21 125.041 152.015C125.177 151.816 125.244 151.581 125.244 151.309C125.244 150.951 125.118 150.655 124.865 150.423C124.615 150.191 124.242 150.075 123.748 150.075H122.053V152.629ZM130.668 158.09C130.228 158.09 129.832 158.012 129.479 157.855C129.13 157.696 128.852 157.461 128.647 157.15C128.446 156.84 128.345 156.457 128.345 156.002C128.345 155.61 128.417 155.286 128.562 155.03C128.706 154.774 128.904 154.569 129.154 154.415C129.404 154.261 129.686 154.145 129.999 154.067C130.316 153.986 130.643 153.927 130.98 153.891C131.387 153.848 131.717 153.811 131.97 153.778C132.223 153.742 132.407 153.687 132.522 153.615C132.639 153.54 132.698 153.424 132.698 153.267V153.24C132.698 152.899 132.597 152.635 132.395 152.449C132.193 152.262 131.902 152.168 131.523 152.168C131.122 152.168 130.804 152.256 130.569 152.43C130.337 152.605 130.18 152.812 130.099 153.05L128.571 152.833C128.691 152.411 128.89 152.058 129.167 151.775C129.445 151.489 129.784 151.275 130.184 151.133C130.585 150.988 131.028 150.916 131.514 150.916C131.848 150.916 132.181 150.955 132.513 151.034C132.844 151.112 133.147 151.242 133.421 151.422C133.696 151.6 133.916 151.843 134.081 152.15C134.25 152.458 134.335 152.842 134.335 153.303V157.95H132.761V156.996H132.707C132.608 157.189 132.467 157.37 132.287 157.539C132.109 157.705 131.884 157.839 131.613 157.941C131.345 158.041 131.03 158.09 130.668 158.09ZM131.093 156.888C131.422 156.888 131.706 156.823 131.948 156.694C132.189 156.561 132.374 156.386 132.504 156.169C132.636 155.952 132.703 155.716 132.703 155.459V154.641C132.651 154.683 132.564 154.723 132.44 154.759C132.32 154.795 132.184 154.826 132.033 154.854C131.883 154.881 131.734 154.905 131.586 154.926C131.438 154.947 131.31 154.965 131.202 154.98C130.958 155.013 130.739 155.068 130.546 155.143C130.353 155.218 130.201 155.324 130.09 155.459C129.978 155.592 129.922 155.764 129.922 155.975C129.922 156.276 130.032 156.504 130.252 156.657C130.472 156.811 130.753 156.888 131.093 156.888ZM139 160.699C138.412 160.699 137.907 160.619 137.486 160.459C137.064 160.303 136.725 160.092 136.468 159.826C136.212 159.561 136.034 159.267 135.935 158.945L137.409 158.588C137.475 158.723 137.571 158.858 137.698 158.99C137.825 159.126 137.995 159.237 138.209 159.325C138.426 159.415 138.699 159.46 139.027 159.46C139.491 159.46 139.876 159.347 140.18 159.121C140.484 158.898 140.637 158.531 140.637 158.018V156.703H140.555C140.471 156.871 140.347 157.045 140.184 157.223C140.025 157.4 139.812 157.55 139.547 157.67C139.285 157.791 138.955 157.851 138.557 157.851C138.024 157.851 137.54 157.726 137.106 157.476C136.675 157.223 136.331 156.846 136.075 156.345C135.822 155.842 135.695 155.212 135.695 154.456C135.695 153.693 135.822 153.05 136.075 152.525C136.331 151.998 136.676 151.599 137.11 151.327C137.544 151.053 138.028 150.916 138.561 150.916C138.968 150.916 139.303 150.985 139.565 151.124C139.83 151.26 140.041 151.424 140.198 151.617C140.355 151.807 140.474 151.986 140.555 152.155H140.646V151.006H142.259V158.063C142.259 158.657 142.118 159.148 141.835 159.537C141.551 159.926 141.164 160.217 140.673 160.41C140.181 160.603 139.624 160.699 139 160.699ZM139.014 156.567C139.36 156.567 139.656 156.483 139.9 156.314C140.144 156.145 140.329 155.902 140.456 155.586C140.582 155.27 140.646 154.89 140.646 154.447C140.646 154.01 140.582 153.627 140.456 153.298C140.332 152.97 140.148 152.715 139.904 152.534C139.663 152.351 139.366 152.259 139.014 152.259C138.649 152.259 138.344 152.354 138.1 152.544C137.856 152.733 137.672 152.994 137.549 153.326C137.425 153.654 137.363 154.028 137.363 154.447C137.363 154.872 137.425 155.244 137.549 155.563C137.675 155.88 137.861 156.127 138.105 156.305C138.352 156.48 138.655 156.567 139.014 156.567Z" fill="black"/>
<path d="M70.0997 213.533V195.016H71.2859V213.533H70.0997ZM73.8103 200.759C73.7332 200.075 73.4149 199.544 72.8556 199.168C72.2962 198.787 71.5922 198.597 70.7435 198.597C70.1359 198.597 69.6102 198.693 69.1666 198.886C68.723 199.074 68.3782 199.334 68.1323 199.667C67.8912 199.995 67.7706 200.369 67.7706 200.788C67.7706 201.14 67.8526 201.444 68.0165 201.7C68.1853 201.955 68.4047 202.17 68.6748 202.344C68.9496 202.512 69.2438 202.655 69.5572 202.77C69.8706 202.881 70.172 202.973 70.4614 203.045L71.908 203.421C72.3806 203.537 72.8652 203.694 73.3619 203.891C73.8586 204.089 74.3191 204.35 74.7434 204.673C75.1678 204.996 75.5102 205.396 75.7706 205.873C76.0358 206.351 76.1684 206.922 76.1684 207.588C76.1684 208.427 75.9514 209.172 75.5174 209.823C75.0882 210.474 74.4638 210.987 73.644 211.363C72.829 211.739 71.8429 211.928 70.6856 211.928C69.5765 211.928 68.6169 211.752 67.8068 211.4C66.9966 211.047 66.3625 210.548 65.9044 209.902C65.4463 209.251 65.1932 208.48 65.1449 207.588H67.3872C67.4306 208.123 67.6042 208.569 67.908 208.926C68.2166 209.278 68.6097 209.541 69.087 209.714C69.5693 209.883 70.0973 209.967 70.6711 209.967C71.3028 209.967 71.8646 209.868 72.3565 209.671C72.8532 209.468 73.2437 209.189 73.5283 208.832C73.8128 208.47 73.955 208.048 73.955 207.566C73.955 207.127 73.8296 206.768 73.5789 206.488C73.333 206.208 72.9978 205.977 72.5735 205.794C72.1539 205.611 71.679 205.449 71.1485 205.309L69.3981 204.832C68.2118 204.509 67.2715 204.034 66.5771 203.407C65.8875 202.78 65.5428 201.95 65.5428 200.919C65.5428 200.065 65.7742 199.32 66.2372 198.683C66.7001 198.047 67.327 197.553 68.1178 197.201C68.9086 196.844 69.8007 196.665 70.7941 196.665C71.7971 196.665 72.682 196.841 73.4487 197.193C74.2202 197.545 74.8278 198.03 75.2715 198.647C75.7151 199.26 75.9466 199.964 75.9659 200.759H73.8103ZM84.257 196.868V211.682H82.0146V199.11H81.9278L78.3836 201.425V199.284L82.0797 196.868H84.257ZM87.9531 208.788V206.98L94.3545 196.868H95.7795V199.53H94.8753L90.2967 206.777V206.893H99.0706V208.788H87.9531ZM94.9766 211.682V208.239L94.9911 207.414V196.868H97.1104V211.682H94.9766ZM102.488 211.819C102.093 211.819 101.753 211.679 101.468 211.4C101.184 211.115 101.042 210.773 101.042 210.372C101.042 209.977 101.184 209.639 101.468 209.36C101.753 209.075 102.093 208.933 102.488 208.933C102.884 208.933 103.224 209.075 103.508 209.36C103.793 209.639 103.935 209.977 103.935 210.372C103.935 210.638 103.867 210.881 103.732 211.103C103.602 211.32 103.429 211.494 103.212 211.624C102.995 211.754 102.754 211.819 102.488 211.819ZM111.55 196.665C112.21 196.67 112.861 196.791 113.503 197.027C114.144 197.263 114.723 197.649 115.239 198.184C115.76 198.72 116.174 199.443 116.483 200.354C116.796 201.261 116.955 202.389 116.96 203.74C116.96 205.037 116.83 206.192 116.57 207.204C116.309 208.212 115.936 209.063 115.448 209.758C114.966 210.452 114.38 210.98 113.691 211.342C113.001 211.703 112.225 211.884 111.362 211.884C110.479 211.884 109.696 211.711 109.011 211.363C108.326 211.016 107.769 210.536 107.34 209.924C106.911 209.307 106.643 208.598 106.537 207.797H108.743C108.888 208.434 109.182 208.95 109.626 209.345C110.074 209.736 110.653 209.931 111.362 209.931C112.447 209.931 113.293 209.459 113.901 208.513C114.508 207.563 114.814 206.237 114.819 204.535H114.703C114.453 204.95 114.139 205.307 113.763 205.606C113.392 205.905 112.975 206.136 112.512 206.3C112.049 206.464 111.555 206.546 111.029 206.546C110.175 206.546 109.399 206.336 108.7 205.917C108.001 205.497 107.444 204.921 107.029 204.188C106.614 203.455 106.407 202.618 106.407 201.678C106.407 200.743 106.619 199.894 107.043 199.132C107.473 198.37 108.071 197.767 108.837 197.324C109.609 196.875 110.513 196.656 111.55 196.665ZM111.557 198.546C110.993 198.546 110.484 198.686 110.031 198.966C109.582 199.24 109.228 199.614 108.967 200.087C108.707 200.554 108.577 201.075 108.577 201.649C108.577 202.223 108.702 202.744 108.953 203.211C109.209 203.674 109.556 204.043 109.995 204.318C110.438 204.588 110.945 204.723 111.514 204.723C111.938 204.723 112.333 204.641 112.7 204.477C113.066 204.313 113.387 204.087 113.662 203.797C113.937 203.503 114.151 203.171 114.306 202.799C114.46 202.428 114.537 202.037 114.537 201.627C114.537 201.083 114.407 200.576 114.146 200.108C113.891 199.641 113.539 199.265 113.09 198.98C112.642 198.691 112.131 198.546 111.557 198.546ZM124.499 196.665C125.16 196.67 125.811 196.791 126.452 197.027C127.093 197.263 127.672 197.649 128.188 198.184C128.709 198.72 129.124 199.443 129.432 200.354C129.746 201.261 129.905 202.389 129.91 203.74C129.91 205.037 129.779 206.192 129.519 207.204C129.259 208.212 128.885 209.063 128.398 209.758C127.916 210.452 127.33 210.98 126.64 211.342C125.951 211.703 125.174 211.884 124.311 211.884C123.429 211.884 122.645 211.711 121.96 211.363C121.275 211.016 120.718 210.536 120.289 209.924C119.86 209.307 119.593 208.598 119.486 207.797H121.693C121.837 208.434 122.131 208.95 122.575 209.345C123.023 209.736 123.602 209.931 124.311 209.931C125.396 209.931 126.242 209.459 126.85 208.513C127.457 207.563 127.764 206.237 127.768 204.535H127.653C127.402 204.95 127.089 205.307 126.712 205.606C126.341 205.905 125.924 206.136 125.461 206.3C124.998 206.464 124.504 206.546 123.978 206.546C123.125 206.546 122.348 206.336 121.649 205.917C120.95 205.497 120.393 204.921 119.978 204.188C119.564 203.455 119.356 202.618 119.356 201.678C119.356 200.743 119.568 199.894 119.993 199.132C120.422 198.37 121.02 197.767 121.787 197.324C122.558 196.875 123.462 196.656 124.499 196.665ZM124.506 198.546C123.942 198.546 123.433 198.686 122.98 198.966C122.532 199.24 122.177 199.614 121.917 200.087C121.656 200.554 121.526 201.075 121.526 201.649C121.526 202.223 121.652 202.744 121.902 203.211C122.158 203.674 122.505 204.043 122.944 204.318C123.388 204.588 123.894 204.723 124.463 204.723C124.887 204.723 125.283 204.641 125.649 204.477C126.016 204.313 126.336 204.087 126.611 203.797C126.886 203.503 127.101 203.171 127.255 202.799C127.409 202.428 127.486 202.037 127.486 201.627C127.486 201.083 127.356 200.576 127.096 200.108C126.84 199.641 126.488 199.265 126.04 198.98C125.591 198.691 125.08 198.546 124.506 198.546Z" fill="#0085FF"/>
<g clip-path="url(#clip2_29_8)">
<g clip-path="url(#clip3_29_8)">
<path d="M69.8904 165.888C69.7621 165.633 69.491 165.47 69.1933 165.47C68.8955 165.47 68.6268 165.633 68.4961 165.888L66.9396 168.958L63.4636 169.45C63.1731 169.492 62.931 169.687 62.8414 169.953C62.7519 170.22 62.8245 170.515 63.0327 170.712L65.555 173.105L64.9595 176.485C64.9111 176.764 65.0321 177.047 65.2718 177.212C65.5114 177.376 65.8285 177.397 66.09 177.265L69.1957 175.676L72.3014 177.265C72.5628 177.397 72.8799 177.379 73.1196 177.212C73.3592 177.045 73.4802 176.764 73.4318 176.485L72.8339 173.105L75.3563 170.712C75.5644 170.515 75.6395 170.22 75.5475 169.953C75.4555 169.687 75.2159 169.492 74.9254 169.45L71.4469 168.958L69.8904 165.888Z" fill="#FFB800"/>
<path d="M126.003 174.205L126.005 174.203L126.644 174.53L128.707 175.586L128.307 173.321L128.191 172.655L128.692 172.179L130.389 170.571L128.063 170.242L127.354 170.142L127.041 169.524L126.005 167.487L126.003 167.494V174.205ZM130.241 176.486C130.29 176.765 130.169 177.048 129.929 177.212C129.689 177.377 129.372 177.398 129.111 177.266L126.005 175.676L122.9 177.266C122.638 177.398 122.321 177.377 122.081 177.212C121.842 177.048 121.721 176.765 121.769 176.486L122.367 173.105L119.845 170.713C119.636 170.515 119.561 170.221 119.653 169.954C119.745 169.687 119.985 169.492 120.276 169.45L123.752 168.958L125.311 165.888C125.441 165.633 125.71 165.47 126.008 165.47C126.305 165.47 126.574 165.633 126.705 165.888L128.261 168.958L131.737 169.45C132.028 169.492 132.27 169.687 132.359 169.954C132.449 170.221 132.376 170.515 132.168 170.713L129.646 173.105L130.241 176.486Z" fill="#FFB800"/>
<path d="M84.0931 165.888C83.9648 165.633 83.6937 165.47 83.396 165.47C83.0983 165.47 82.8296 165.633 82.6988 165.888L81.1424 168.958L77.6663 169.45C77.3758 169.492 77.1337 169.687 77.0442 169.953C76.9546 170.22 77.0272 170.515 77.2354 170.712L79.7577 173.105L79.1623 176.485C79.1138 176.764 79.2349 177.047 79.4745 177.212C79.7142 177.376 80.0313 177.397 80.2927 177.265L83.3984 175.676L86.5041 177.265C86.7656 177.397 87.0827 177.379 87.3223 177.212C87.562 177.045 87.683 176.764 87.6346 176.485L87.0367 173.105L89.559 170.712C89.7672 170.515 89.8422 170.22 89.7502 169.953C89.6582 169.687 89.4186 169.492 89.1281 169.45L85.6496 168.958L84.0931 165.888Z" fill="#FFB800"/>
<path d="M98.2959 165.888C98.1676 165.633 97.8965 165.47 97.5987 165.47C97.301 165.47 97.0323 165.633 96.9016 165.888L95.3451 168.958L91.869 169.45C91.5785 169.492 91.3365 169.687 91.2469 169.953C91.1573 170.22 91.23 170.515 91.4381 170.712L93.9605 173.105L93.365 176.485C93.3166 176.764 93.4376 177.047 93.6773 177.212C93.9169 177.376 94.234 177.397 94.4954 177.265L97.6011 175.676L100.707 177.265C100.968 177.397 101.285 177.379 101.525 177.212C101.765 177.045 101.886 176.764 101.837 176.485L101.239 173.105L103.762 170.712C103.97 170.515 104.045 170.22 103.953 169.953C103.861 169.687 103.621 169.492 103.331 169.45L99.8524 168.958L98.2959 165.888Z" fill="#FFB800"/>
<path d="M112.499 165.888C112.37 165.633 112.099 165.47 111.801 165.47C111.504 165.47 111.235 165.633 111.104 165.888L109.548 168.958L106.072 169.45C105.781 169.492 105.539 169.687 105.45 169.953C105.36 170.22 105.433 170.515 105.641 170.712L108.163 173.105L107.568 176.485C107.519 176.764 107.64 177.047 107.88 177.212C108.12 177.376 108.437 177.397 108.698 177.265L111.804 175.676L114.91 177.265C115.171 177.397 115.488 177.379 115.728 177.212C115.967 177.045 116.088 176.764 116.04 176.485L115.442 173.105L117.964 170.712C118.173 170.515 118.248 170.22 118.156 169.953C118.064 169.687 117.824 169.492 117.534 169.45L114.055 168.958L112.499 165.888Z" fill="#FFB800"/>
</g>
</g>
</g>
<g clip-path="url(#clip4_29_8)">
<g clip-path="url(#clip5_29_8)">
<rect x="16.974" y="234.215" width="160.404" height="32.2506" rx="16.1253" fill="#0085FF"/>
<path d="M63.8343 254.702H62.0441L65.3035 245.444H67.374L70.638 254.702H68.8478L66.375 247.342H66.3026L63.8343 254.702ZM63.8931 251.072H68.7755V252.419H63.8931V251.072ZM74.1507 254.824C73.6052 254.824 73.1169 254.684 72.686 254.404C72.255 254.123 71.9144 253.717 71.6643 253.183C71.4141 252.65 71.289 252.002 71.289 251.239C71.289 250.468 71.4156 249.817 71.6688 249.286C71.925 248.753 72.27 248.35 72.704 248.079C73.138 247.805 73.6218 247.668 74.1552 247.668C74.5621 247.668 74.8966 247.737 75.1588 247.876C75.421 248.011 75.629 248.176 75.7827 248.369C75.9364 248.558 76.0554 248.738 76.1398 248.906H76.2076V245.444H77.8487V254.702H76.2393V253.608H76.1398C76.0554 253.777 75.9334 253.956 75.7736 254.146C75.6139 254.333 75.4029 254.493 75.1407 254.625C74.8785 254.758 74.5485 254.824 74.1507 254.824ZM74.6073 253.482C74.9539 253.482 75.2492 253.388 75.4934 253.201C75.7375 253.011 75.9228 252.748 76.0494 252.41C76.176 252.073 76.2393 251.679 76.2393 251.23C76.2393 250.781 76.176 250.391 76.0494 250.059C75.9258 249.728 75.742 249.47 75.4979 249.286C75.2568 249.102 74.9599 249.01 74.6073 249.01C74.2426 249.01 73.9382 249.105 73.6941 249.295C73.45 249.485 73.2661 249.747 73.1426 250.082C73.019 250.416 72.9572 250.799 72.9572 251.23C72.9572 251.664 73.019 252.051 73.1426 252.392C73.2691 252.73 73.4545 252.996 73.6986 253.192C73.9457 253.385 74.2486 253.482 74.6073 253.482ZM82.1694 254.824C81.6239 254.824 81.1357 254.684 80.7047 254.404C80.2737 254.123 79.9331 253.717 79.683 253.183C79.4328 252.65 79.3078 252.002 79.3078 251.239C79.3078 250.468 79.4343 249.817 79.6875 249.286C79.9437 248.753 80.2888 248.35 80.7228 248.079C81.1568 247.805 81.6405 247.668 82.1739 247.668C82.5808 247.668 82.9153 247.737 83.1775 247.876C83.4397 248.011 83.6477 248.176 83.8014 248.369C83.9551 248.558 84.0742 248.738 84.1585 248.906H84.2264V245.444H85.8674V254.702H84.258V253.608H84.1585C84.0742 253.777 83.9521 253.956 83.7924 254.146C83.6326 254.333 83.4217 254.493 83.1595 254.625C82.8973 254.758 82.5672 254.824 82.1694 254.824ZM82.626 253.482C82.9726 253.482 83.268 253.388 83.5121 253.201C83.7562 253.011 83.9415 252.748 84.0681 252.41C84.1947 252.073 84.258 251.679 84.258 251.23C84.258 250.781 84.1947 250.391 84.0681 250.059C83.9446 249.728 83.7607 249.47 83.5166 249.286C83.2755 249.102 82.9786 249.01 82.626 249.01C82.2613 249.01 81.9569 249.105 81.7128 249.295C81.4687 249.485 81.2848 249.747 81.1613 250.082C81.0377 250.416 80.9759 250.799 80.9759 251.23C80.9759 251.664 81.0377 252.051 81.1613 252.392C81.2879 252.73 81.4732 252.996 81.7173 253.192C81.9645 253.385 82.2674 253.482 82.626 253.482ZM94.2365 247.758V249.024H90.2446V247.758H94.2365ZM91.2302 246.095H92.8667V252.614C92.8667 252.834 92.8998 253.002 92.9661 253.12C93.0355 253.234 93.1259 253.313 93.2374 253.355C93.3489 253.397 93.4725 253.418 93.6081 253.418C93.7106 253.418 93.804 253.411 93.8884 253.396C93.9758 253.381 94.0421 253.367 94.0873 253.355L94.3631 254.634C94.2757 254.664 94.1506 254.698 93.9878 254.734C93.8281 254.77 93.6322 254.791 93.4001 254.797C92.9902 254.809 92.6211 254.747 92.2925 254.612C91.964 254.473 91.7033 254.259 91.5104 253.97C91.3206 253.68 91.2271 253.319 91.2302 252.885V246.095ZM98.5595 254.838C97.8813 254.838 97.2936 254.689 96.7964 254.39C96.2991 254.092 95.9133 253.674 95.639 253.138C95.3678 252.601 95.2322 251.975 95.2322 251.257C95.2322 250.54 95.3678 249.912 95.639 249.372C95.9133 248.833 96.2991 248.414 96.7964 248.115C97.2936 247.817 97.8813 247.668 98.5595 247.668C99.2376 247.668 99.8253 247.817 100.323 248.115C100.82 248.414 101.204 248.833 101.475 249.372C101.75 249.912 101.887 250.54 101.887 251.257C101.887 251.975 101.75 252.601 101.475 253.138C101.204 253.674 100.82 254.092 100.323 254.39C99.8253 254.689 99.2376 254.838 98.5595 254.838ZM98.5685 253.527C98.9362 253.527 99.2436 253.426 99.4907 253.224C99.7379 253.019 99.9217 252.745 100.042 252.401C100.166 252.057 100.228 251.675 100.228 251.253C100.228 250.828 100.166 250.444 100.042 250.1C99.9217 249.753 99.7379 249.478 99.4907 249.273C99.2436 249.068 98.9362 248.965 98.5685 248.965C98.1918 248.965 97.8783 249.068 97.6282 249.273C97.381 249.478 97.1957 249.753 97.0721 250.1C96.9516 250.444 96.8913 250.828 96.8913 251.253C96.8913 251.675 96.9516 252.057 97.0721 252.401C97.1957 252.745 97.381 253.019 97.6282 253.224C97.8783 253.426 98.1918 253.527 98.5685 253.527ZM114.431 248.567H112.74C112.692 248.29 112.603 248.045 112.473 247.831C112.344 247.614 112.182 247.43 111.99 247.279C111.797 247.128 111.577 247.015 111.33 246.94C111.085 246.862 110.822 246.822 110.538 246.822C110.035 246.822 109.589 246.949 109.2 247.202C108.811 247.452 108.507 247.82 108.287 248.305C108.067 248.787 107.957 249.377 107.957 250.073C107.957 250.781 108.067 251.378 108.287 251.863C108.51 252.345 108.814 252.71 109.2 252.957C109.589 253.201 110.034 253.323 110.534 253.323C110.811 253.323 111.07 253.287 111.311 253.215C111.556 253.139 111.774 253.029 111.967 252.885C112.163 252.74 112.327 252.562 112.46 252.351C112.595 252.14 112.689 251.899 112.74 251.628L114.431 251.637C114.367 252.077 114.23 252.49 114.019 252.876C113.811 253.262 113.539 253.602 113.201 253.897C112.864 254.19 112.469 254.419 112.017 254.585C111.565 254.747 111.063 254.829 110.511 254.829C109.698 254.829 108.971 254.64 108.332 254.264C107.693 253.887 107.19 253.343 106.822 252.632C106.455 251.92 106.271 251.067 106.271 250.073C106.271 249.075 106.456 248.222 106.827 247.514C107.198 246.803 107.702 246.259 108.341 245.882C108.98 245.505 109.704 245.317 110.511 245.317C111.027 245.317 111.506 245.389 111.949 245.534C112.392 245.679 112.787 245.891 113.133 246.171C113.48 246.449 113.765 246.789 113.988 247.193C114.214 247.594 114.361 248.052 114.431 248.567ZM117.893 254.842C117.453 254.842 117.056 254.764 116.704 254.607C116.354 254.447 116.077 254.212 115.872 253.902C115.67 253.592 115.569 253.209 115.569 252.754C115.569 252.362 115.641 252.038 115.786 251.782C115.931 251.526 116.128 251.321 116.378 251.167C116.628 251.013 116.91 250.897 117.223 250.819C117.54 250.737 117.867 250.679 118.204 250.642C118.611 250.6 118.941 250.563 119.195 250.529C119.448 250.493 119.632 250.439 119.746 250.367C119.864 250.291 119.922 250.175 119.922 250.019V249.991C119.922 249.651 119.821 249.387 119.619 249.2C119.418 249.013 119.127 248.92 118.747 248.92C118.346 248.92 118.028 249.007 117.793 249.182C117.561 249.357 117.404 249.564 117.323 249.802L115.795 249.585C115.915 249.163 116.114 248.81 116.392 248.527C116.669 248.24 117.008 248.026 117.409 247.885C117.81 247.74 118.253 247.668 118.738 247.668C119.072 247.668 119.406 247.707 119.737 247.785C120.069 247.864 120.371 247.993 120.646 248.174C120.92 248.352 121.14 248.595 121.306 248.902C121.475 249.209 121.559 249.594 121.559 250.055V254.702H119.986V253.748H119.931C119.832 253.941 119.692 254.122 119.511 254.291C119.333 254.456 119.109 254.591 118.837 254.693C118.569 254.793 118.254 254.842 117.893 254.842ZM118.318 253.64C118.646 253.64 118.931 253.575 119.172 253.445C119.413 253.313 119.598 253.138 119.728 252.921C119.861 252.704 119.927 252.467 119.927 252.211V251.393C119.876 251.435 119.788 251.474 119.665 251.51C119.544 251.547 119.409 251.578 119.258 251.605C119.107 251.633 118.958 251.657 118.81 251.678C118.663 251.699 118.535 251.717 118.426 251.732C118.182 251.765 117.963 251.819 117.77 251.895C117.578 251.97 117.425 252.076 117.314 252.211C117.202 252.344 117.147 252.516 117.147 252.727C117.147 253.028 117.257 253.255 117.477 253.409C117.697 253.563 117.977 253.64 118.318 253.64ZM123.204 254.702V247.758H124.791V248.916H124.864C124.99 248.515 125.207 248.206 125.515 247.989C125.825 247.769 126.179 247.659 126.577 247.659C126.667 247.659 126.768 247.663 126.88 247.672C126.994 247.678 127.089 247.689 127.165 247.704V249.209C127.095 249.185 126.985 249.164 126.835 249.146C126.687 249.125 126.544 249.114 126.405 249.114C126.107 249.114 125.839 249.179 125.6 249.309C125.365 249.435 125.18 249.612 125.044 249.838C124.909 250.064 124.841 250.325 124.841 250.62V254.702H123.204ZM132.092 247.758V249.024H128.1V247.758H132.092ZM129.086 246.095H130.722V252.614C130.722 252.834 130.756 253.002 130.822 253.12C130.891 253.234 130.982 253.313 131.093 253.355C131.205 253.397 131.328 253.418 131.464 253.418C131.566 253.418 131.66 253.411 131.744 253.396C131.832 253.381 131.898 253.367 131.943 253.355L132.219 254.634C132.131 254.664 132.006 254.698 131.844 254.734C131.684 254.77 131.488 254.791 131.256 254.797C130.846 254.809 130.477 254.747 130.148 254.612C129.82 254.473 129.559 254.259 129.366 253.97C129.176 253.68 129.083 253.319 129.086 252.885V246.095Z" fill="white"/>
</g>
<g clip-path="url(#clip6_29_8)">
<path d="M70.9686 292.894V283.635H74.5129C75.182 283.635 75.738 283.741 76.1811 283.952C76.6271 284.159 76.9602 284.444 77.1802 284.806C77.4032 285.168 77.5147 285.577 77.5147 286.036C77.5147 286.412 77.4424 286.735 77.2977 287.003C77.153 287.268 76.9586 287.484 76.7145 287.65C76.4704 287.815 76.1977 287.934 75.8963 288.007V288.097C76.2248 288.115 76.5397 288.216 76.8411 288.4C77.1455 288.581 77.3941 288.837 77.587 289.168C77.7799 289.5 77.8764 289.901 77.8764 290.371C77.8764 290.85 77.7603 291.281 77.5283 291.664C77.2962 292.044 76.9466 292.344 76.4794 292.564C76.0123 292.784 75.4246 292.894 74.7163 292.894H70.9686ZM72.6458 291.492H74.4496C75.0584 291.492 75.4969 291.376 75.7652 291.144C76.0364 290.909 76.172 290.608 76.172 290.24C76.172 289.966 76.1042 289.719 75.9686 289.499C75.833 289.275 75.6401 289.101 75.3899 288.974C75.1398 288.845 74.8414 288.78 74.4948 288.78H72.6458V291.492ZM72.6458 287.573H74.305C74.5943 287.573 74.855 287.52 75.087 287.414C75.3191 287.306 75.5015 287.154 75.6341 286.958C75.7697 286.759 75.8375 286.524 75.8375 286.253C75.8375 285.894 75.7109 285.599 75.4578 285.367C75.2076 285.134 74.8354 285.018 74.3411 285.018H72.6458V287.573ZM83.6889 289.973V285.95H85.3255V292.894H83.7387V291.659H83.6663C83.5096 292.048 83.2519 292.366 82.8933 292.613C82.5377 292.86 82.0991 292.984 81.5777 292.984C81.1227 292.984 80.7203 292.883 80.3707 292.681C80.0241 292.476 79.7529 292.179 79.557 291.791C79.3611 291.399 79.2631 290.926 79.2631 290.371V285.95H80.8996V290.118C80.8996 290.558 81.0202 290.907 81.2613 291.167C81.5024 291.426 81.8189 291.555 82.2107 291.555C82.4518 291.555 82.6853 291.497 82.9114 291.379C83.1374 291.262 83.3228 291.087 83.4674 290.855C83.6151 290.62 83.6889 290.326 83.6889 289.973ZM88.0255 295.498C87.8025 295.498 87.596 295.479 87.4062 295.443C87.2193 295.41 87.0701 295.371 86.9586 295.326L87.3383 294.051C87.5764 294.12 87.7889 294.153 87.9758 294.15C88.1626 294.147 88.3269 294.089 88.4685 293.974C88.6132 293.863 88.7353 293.676 88.8347 293.414L88.9749 293.038L86.4568 285.95H88.1928L89.7931 291.194H89.8655L91.4703 285.95H93.2108L90.4306 293.734C90.301 294.102 90.1292 294.417 89.9152 294.679C89.7012 294.945 89.439 295.146 89.1286 295.285C88.8212 295.427 88.4535 295.498 88.0255 295.498ZM105.182 283.635V292.894H103.69L99.3274 286.587H99.2506V292.894H97.5734V283.635H99.0743L103.432 289.946H103.514V283.635H105.182ZM109.966 293.029C109.288 293.029 108.7 292.88 108.203 292.582C107.706 292.283 107.32 291.866 107.046 291.329C106.774 290.793 106.639 290.166 106.639 289.449C106.639 288.731 106.774 288.103 107.046 287.564C107.32 287.024 107.706 286.605 108.203 286.307C108.7 286.008 109.288 285.859 109.966 285.859C110.644 285.859 111.232 286.008 111.729 286.307C112.226 286.605 112.611 287.024 112.882 287.564C113.156 288.103 113.293 288.731 113.293 289.449C113.293 290.166 113.156 290.793 112.882 291.329C112.611 291.866 112.226 292.283 111.729 292.582C111.232 292.88 110.644 293.029 109.966 293.029ZM109.975 291.718C110.343 291.718 110.65 291.617 110.897 291.415C111.144 291.21 111.328 290.936 111.449 290.593C111.572 290.249 111.634 289.866 111.634 289.444C111.634 289.019 111.572 288.635 111.449 288.291C111.328 287.945 111.144 287.669 110.897 287.464C110.65 287.259 110.343 287.157 109.975 287.157C109.598 287.157 109.285 287.259 109.035 287.464C108.788 287.669 108.602 287.945 108.479 288.291C108.358 288.635 108.298 289.019 108.298 289.444C108.298 289.866 108.358 290.249 108.479 290.593C108.602 290.936 108.788 291.21 109.035 291.415C109.285 291.617 109.598 291.718 109.975 291.718ZM115.916 292.894L113.954 285.95H115.623L116.843 290.832H116.906L118.154 285.95H119.804L121.052 290.805H121.12L122.322 285.95H123.995L122.028 292.894H120.324L119.022 288.201H118.927L117.625 292.894H115.916Z" fill="black"/>
</g>
<rect x="17.3983" y="272.831" width="159.556" height="31.4019" rx="15.7009" stroke="black" stroke-width="0.8487"/>
</g>
</g>
<path d="M47.5272 9.30969H131.548V9.30969C131.548 15.4031 126.609 20.3428 120.515 20.3428H58.5603C52.4669 20.3428 47.5272 15.4031 47.5272 9.30969V9.30969Z" fill="#1D1D1D"/>
<defs>
<clipPath id="clip0_29_8">
<rect x="11.0331" y="13.5532" width="173.135" height="301.288" rx="12.7305" fill="white"/>
</clipPath>
<clipPath id="clip1_29_8">
<rect width="140.884" height="73.8369" fill="white" transform="translate(27.1584 143.404)"/>
</clipPath>
<clipPath id="clip2_29_8">
<rect width="69.5934" height="12.7305" fill="white" transform="translate(62.8038 165.47)"/>
</clipPath>
<clipPath id="clip3_29_8">
<rect width="69.5934" height="11.8818" fill="white" transform="translate(62.8038 165.47)"/>
</clipPath>
<clipPath id="clip4_29_8">
<rect width="160.404" height="72.9882" fill="white" transform="translate(16.974 231.669)"/>
</clipPath>
<clipPath id="clip5_29_8">
<rect x="16.974" y="234.215" width="160.404" height="32.2506" rx="16.1253" fill="white"/>
</clipPath>
<clipPath id="clip6_29_8">
<rect x="16.974" y="272.407" width="160.404" height="32.2506" rx="16.1253" fill="white"/>
</clipPath>
</defs>
</svg>
